<svg version="1.1" height="32px" width="32px" xmlns="http://www.w3.org/2000/svg"
     xmlns:xlink="http://www.w3.org/1999/xlink" x="0px" y="0px"
     viewBox="0 0 512 512" style="enable-background:new 0 0 512 512;" xml:space="preserve">
    <path style="fill:#FEDBAB;" d="M31,267c0,16.5,13.5,30,30,30c-16.5,0-30,13.5-30,30s13.5,30,30,30h123c-18.3,54.9-18,73.4-18,107
	c0,19.5,12.6,36.3,30,42.3c4.8,1.8,9.6,2.7,15,2.7h9c5.7,0,12.9-4.5,14.4-11.4l8.4-32.7C255.4,416,295.9,357,346,357V147l-66.9-22.2
	c-15.3-5.1-31.2-7.8-47.4-7.8H91c-16.6,0-30,13.4-30,30c0,16.6,13.4,30,30,30H61c-16.5,0-30,13.5-30,30s13.5,30,30,30
	C44.5,237,31,250.5,31,267z"/>
    <path style="fill:#FEC478;" d="M91,117c-16.6,0-30,13.4-30,30c0,16.6,13.4,30,30,30H61c-16.5,0-30,13.5-30,30s13.5,30,30,30
	c-16.5,0-30,13.5-30,30s13.5,30,30,30c-16.5,0-30,13.5-30,30s13.5,30,30,30h123c-18.3,54.9-18,73.4-18,107c0,19.5,12.6,36.3,30,42.3
	c4.8,1.8,9.6,2.7,15,2.7V117H91z"/>
    <g>
	<path style="fill:#1689FC;" d="M376,87h90c8.3,0,15,6.7,15,15v270c0,8.3-6.7,15-15,15h-90c-24.8,0-45-20.2-45-45V132
		C331,107.2,351.2,87,376,87z"/>
</g>
</svg>
