<svg xmlns="http://www.w3.org/2000/svg" xmlns:xlink="http://www.w3.org/1999/xlink" x="0" y="0" version="1.1" viewBox="0 0 600 600" xml:space="preserve" style="enable-background:new 0 0 600 600"><style type="text/css">.st0{fill:#bfdbfe}.st1,.st2{fill:#fff;stroke:#202124;stroke-width:.75;stroke-miterlimit:10}.st2{fill:none}.st3{fill:#202124}.st4{fill:#5185ec}.st5{fill:#709aee}.st6{fill:#fff}.st7{fill:#f7cd5b}.st8{fill:#040844}.st9{fill:none}.st10{fill:#fecdd3}.st11{fill:#efefef}.st12{fill:#eb506e}</style><g id="background"><g id="table"><path d="M69.4,395.6c5.5-4.4,173.7-96.9,173.7-96.9l307.3,36.3L430.9,476.4L69.4,395.6z" class="st0"/></g><g id="keyboard"><path d="M211.1,373.8c1-1.8,43.4-24.5,43.4-24.5l99.6,18.6l-41.8,31L211.1,373.8z" class="st1"/><line x1="219.6" x2="322.8" y1="368.5" y2="391.2" class="st2"/><line x1="232.7" x2="333.1" y1="361.1" y2="383.6" class="st2"/><line x1="244.4" x2="345.8" y1="354.8" y2="374.1" class="st2"/><line x1="220.8" x2="263.4" y1="376.2" y2="350.7" class="st2"/><line x1="247.8" x2="280.4" y1="374.7" y2="354.2" class="st2"/><line x1="265" x2="295.7" y1="378" y2="357.5" class="st2"/><line x1="280.3" x2="312.9" y1="381.9" y2="360.2" class="st2"/><line x1="287.4" x2="327.1" y1="392.8" y2="363.4" class="st2"/><line x1="299.9" x2="342.1" y1="396.1" y2="365.7" class="st2"/></g><g id="mouse"><path d="M351.1,394.2c-2.4-3.5,1.5-11.3,6.6-15.3c5.9-4.6,14.5-5.2,22.2-1.4c0.2,2.3,0,6.2-2.1,9.8 C371.9,397.4,354.5,399.2,351.1,394.2z" class="st1"/><g><g><path d="M363.9,379.8c4.8-2,9.8-2.7,15-2c0.5,0.1,0.7-0.7,0.2-0.7c-5.3-0.8-10.4-0.1-15.4,2 C363.3,379.2,363.5,379.9,363.9,379.8L363.9,379.8z" class="st3"/></g></g><g><g><path d="M360.8,379.4c4.4,0.4,9.1,0.9,11.9,4.8c0.3,0.4,0.9,0,0.6-0.4c-3-4.1-7.8-4.8-12.5-5.1 C360.3,378.6,360.3,379.3,360.8,379.4L360.8,379.4z" class="st3"/></g></g></g><g id="coffee"><path d="M448.1,383.2l-34.1,13c-2.4,0.9-5,0.1-6.5-1.9l-9.5-12.8c-2.2-3-1-7.3,2.5-8.6l37-14.3 c2.8-1.1,5.9,0.2,7.1,2.9l6.5,14.2C452.6,378.6,451.2,382.1,448.1,383.2z" class="st4"/><g><g><path d="M412.5,344.6c-4.8,0.6-8.6,4.3-8.2,9.3c0.4,5.4,5.2,8.3,10.1,8.5c1.9,0.1,1.9-2.9,0-3 c-3.2-0.1-6.4-1.6-7.1-5c-0.7-3.4,1.8-6.4,5.1-6.8C414.4,347.3,414.4,344.3,412.5,344.6L412.5,344.6z" class="st3"/></g></g><polygon points="430.3 380 414.8 380 409.6 337.2 436 337.2" class="st3"/><ellipse cx="422.8" cy="337.6" class="st1" rx="13.2" ry="2.9"/><g><g><path d="M418.1,313.7c-2,1.4-4.4,3.2-4.5,5.9c-0.1,2.2,1.2,2.7,2.5,4.1c0.3,0.2,0.7,0.4,1,0.6 c0.5,2.6,0.9,5.1,1.4,7.7c-0.2,0.8-1,1.5-1.2,2.3c-0.3,0.9-0.6,1.8-0.3,2.7c0.5,1.8,1.7,2.2,3.3,2.1c0.5,0,0.5-0.8,0-0.8 c-0.6-1.6-1.2-3.3-1.8-4.9c0.2-0.4,0.4-0.8,0.7-1.1c0.2-0.6,0.7-1.2,0.9-1.8c0.4-1.2,0.5-2.4,0.1-3.7c-0.3-1-0.9-1.8-1.7-2.5 c-0.3-0.3-1.2-0.6-1.5-1c-1.3-0.6-1.5-1.8-0.7-3.7c-1.1-2.6-0.4-4.4,2.2-5.3C418.8,314,418.5,313.4,418.1,313.7L418.1,313.7z" class="st3"/></g></g><g><g><path d="M431,318.4c-3,0.7-6.8,3.8-5.7,7.4c0.2,0.6,0.3,0.8,0.8,1.3c0.5,0.4,1,0.8,1.4,1.2c0.8,2.3,0.5,4.2-0.9,5.7 c-1.1,2.2-2.4,3.3-1.5,5.8c0.2,0.4,0.9,0.3,0.7-0.2c-0.5-1.4,0.7-4,1.4-5.2c0.4-0.7,1.1-1.4,1.4-2.2c0.3-0.8,0.6-1.7,0.5-2.5 c-0.2-1-0.6-1.1-1.1-1.9c-1.2-1.9-2.4-3.4-1.1-5.6c0.9-1.6,2.4-2.6,4.3-3C431.7,319.1,431.5,318.3,431,318.4L431,318.4z" class="st3"/></g></g></g><g id="plant"><path d="M506.4,348c-2.8,1.4-11.1,5.2-21.7,3.4c-8.9-1.5-14.7-6-17.2-8.2c0-13,0-26.1,0-39.1l38.9,4.8V348z" class="st1"/><ellipse cx="486.9" cy="305.6" class="st3" rx="20.6" ry="9.6"/><g><g><path d="M485.6,305.4c-4-2.9-0.7-9.2-0.1-12.9c0.5-2.9,0.6-5.9-0.3-8.7c-1.9-6.1-11.9-12.2-7.6-19.1 c1-1.6-1.6-3.1-2.6-1.5c-5.2,8.3,4.5,13.9,7,20.9c2.7,7.5-5.8,18.3,2,23.9C485.6,309.1,487.1,306.5,485.6,305.4L485.6,305.4z" class="st5"/></g></g><g><g><path d="M485.7,292.5c0.9-5.6,3.6-10.7,8.4-13.9c2.9-2,6.3-3.1,8.1-6.4c4.2-7.7-1.9-16.4-1.2-24.4 c0.2-1.9-2.8-1.9-3,0c-0.9,9.5,7.7,20.4-2.9,26.7c-6.6,3.9-11,9.5-12.2,17.2C482.5,293.5,485.3,294.4,485.7,292.5L485.7,292.5z" class="st5"/></g></g><g><g><path d="M487.4,244.4c-1.5,4.2-4.4,10.2-2,14.6c1,1.7,2.7,2.8,4,4.2c2.9,3.2,4,7.1,3.7,11.4c-0.2,1.9,2.8,1.9,3,0 c0.4-4.3-0.6-8.6-3.3-12.1c-1.2-1.5-2.9-2.6-4-4.2c-2.5-3.5,0.2-9.4,1.5-13.2C491,243.4,488.1,242.6,487.4,244.4L487.4,244.4z" class="st5"/></g></g><path d="M469.2,268.5c-0.3,0.9-1.3,4.4,0.5,7.8c2,3.9,6.9,6.1,12,5.2c-0.3-1.6-1.6-6.3-5.9-9.8 C473.3,269.7,470.8,268.9,469.2,268.5z" class="st5"/><path d="M475.5,265.3c-0.8-0.7-3.6-3.4-4-7.7c-0.6-6.6,4.9-10.7,5.2-10.9c0.8,1.5,1.7,3.7,2,6.6 C479.3,259.3,476.5,263.8,475.5,265.3z" class="st5"/><path d="M486.9,250.8c-0.6-0.5-5.1-3.8-5.5-9.7c-0.3-4.5,1.9-7.7,2.6-8.5c1,1.1,2.3,2.7,3.2,4.8 C489.8,243.5,487.6,249.3,486.9,250.8z" class="st5"/><path d="M491.9,263.8c-0.3-0.4-3.5-5.4-1.3-10.6c1-2.4,2.8-3.7,3.8-4.4c0.5,0.9,1.9,3.7,1.5,7.4 C495.3,260.6,492.6,263.2,491.9,263.8z" class="st5"/><path d="M489.6,280.5c-1-0.6-4.3-3-5.7-7.6c-1.2-3.9-0.4-7.1,0-8.3c1,0.9,2.2,2,3.2,3.6 C490.3,273.1,489.8,278.5,489.6,280.5z" class="st5"/><path d="M483.6,297.1c-0.7-1,1.9-4.2,3.6-5.8c3.8-3.5,8.4-4.1,10.3-4.2c-0.3,1.1-0.9,2.5-2,4 C491.8,296.4,484.6,298.5,483.6,297.1z" class="st5"/></g><g id="card"><path d="M236,315.8c11.3,2.4,23.9,3.4,35.2,5.8l-27,15.5c-12.7-2.5-25.5-5.1-38.2-7.6 C216.4,324.5,225.5,320.8,236,315.8z" class="st5"/><path d="M238,318.2c8.3,1.8,17.6,2.5,25.8,4.3L244,333.8c-9.4-1.9-18.7-3.7-28.1-5.6 C223.7,324.5,230.3,321.8,238,318.2z" class="st6"/></g><g id="phone"><path d="M400.5,447.6l-54.4-11.5c-2.5-0.5-3-3.9-0.8-5.1l28.8-16.7c0.6-0.3,1.3-0.5,2-0.3l54.4,11.5 c2.5,0.5,3,3.9,0.8,5.1l-28.8,16.7C401.9,447.6,401.1,447.7,400.5,447.6z" class="st6"/><path d="M399.3,440.7l-42.9-9c-1.6-0.3-1.9-2.4-0.5-3.2l19.8-11.4c0.4-0.2,0.8-0.3,1.2-0.2l44.2,8.9 c1.6,0.3,1.9,2.4,0.5,3.2l-21,11.5C400.2,440.7,399.7,440.8,399.3,440.7z" class="st5"/></g></g><g id="girl"><g id="hand_left_1_"><path d="M226.1,371.1c0.6-0.9,1.5-2.3,2.7-4c3.9-5.8,4.4-6.7,6-8.9c2.6-3.5,3.9-5.3,6-6.7c1.3-0.9,4.8-3.3,9.5-3.2 c1.4,0,3.3,0.1,5,1.4c2.4,1.8,3.8,5.4,2.6,7.5c-0.4,0.7-1.3,1.2-3.2,2.2c-2.2,1.2-3,1.2-4.6,2.1c-0.9,0.5-2.2,1.4-3.5,2.8 c2-1.2,4.3-0.8,5.3,0.6c0.7,1,0.8,2.5,0.3,3.5c-0.6,1.1-1.7,1.4-2.8,1.8c-2.5,0.9,1.2-0.1-6.4,3.2c-5.5,2.4-8.3,3.6-10.2,3.7 c-1.5,0.1-5.9,0.4-7.2-2C224.9,373.7,225.7,371.9,226.1,371.1z" class="st7"/><path d="M191.3,381.1c1.2,0,2.9,0,4.9-0.2c5.8-0.5,9.7-2.1,15.5-4.3c3.2-1.2,8.3-3.1,14.8-5.4c0.5,0,2.7-0.1,4.6,1.5 c2.3,1.9,2.3,4.7,2.3,5.1c-2.4,1.2-6.2,3.1-10.6,5.8c-6.1,3.6-9.6,6.3-16.6,11.1c-3.4,2.3-8.4,5.7-14.7,9.7 C191.3,396.7,191.3,388.9,191.3,381.1z" class="st8"/><g><path d="M191.3,381.1c1.6,0.5,3.3,0.2,4.9-0.2c10.3-2.3,20.3-5.6,29.9-9.8" class="st9"/></g><g><path d="M203.9,396.1c9.3-6,18.6-12,27.9-18.1" class="st9"/></g><g><path d="M226.5,371.2c3.3-0.6,6.7,2.6,6.3,5.9" class="st9"/></g><g><path d="M249.9,364c1.2-1,3.5-0.1,3.7,1.5c0.1,1.1-0.5,2.1-1.4,2.9c-0.9,0.8-2,1.4-3.2,2c-5.2,2.7-10.4,5.1-15.7,7.4" class="st9"/></g><g><path d="M226.8,370.1c2.9-4.4,5.9-8.7,8.8-13.1c0.9-1.4,1.9-2.8,3.1-3.9c3.1-2.9,7.5-4,11.7-4.9" class="st9"/></g><g><g><path d="M246.9,364.5c2.8-3,6.4-4.9,10.5-5.3c0.5-0.1,0.5-0.8,0-0.8c-4.3,0.5-8.1,2.4-11.1,5.6 C246,364.3,246.6,364.8,246.9,364.5L246.9,364.5z" class="st3"/></g></g><g><g><path d="M245.4,358.9c3.4-2.4,7.2-3.7,11.4-3.8c0.5,0,0.5-0.8,0-0.8c-4.3,0.1-8.3,1.4-11.7,3.9 C244.6,358.5,245,359.2,245.4,358.9L245.4,358.9z" class="st3"/></g></g><g><g><path d="M240.8,357.7c3.4-3.6,7.8-5.4,12.7-5.2c0.5,0,0.5-0.7,0-0.8c-5.1-0.2-9.8,1.7-13.3,5.4 C240,357.5,240.5,358.1,240.8,357.7L240.8,357.7z" class="st3"/></g></g><g><g><path d="M244.3,352.2c3.5-1.8,7.2-2.5,11.1-2.2c0.5,0,0.5-0.7,0-0.8c-4-0.3-7.9,0.5-11.5,2.3 C243.5,351.7,243.8,352.4,244.3,352.2L244.3,352.2z" class="st3"/></g></g></g><g id="torso_1_"><path d="M136,334c-8.4,2.3-14.2,5.5-17.7,7.8c-3.2,2.1-5.4,4.1-6.3,7c-0.8,2.7-0.1,5.1,0.4,7.1 c1.9,7.1-0.5,2.8,2.6,17c2.5,11.7,5.8,22.7,6.9,26.2c10.7,35.6,11.6,40.5,12.1,44.7c1.4,10.7,1.1,19.5,0.6,25.3 c3.1,2.4,7.5,5.5,13.2,8.3c4.4,2.3,14.9,7.1,29.4,8.9c11.6,1.4,21.4,0.2,28.2-1.2c0.3-9.1,0.5-21.4,0.4-36.2 c-0.1-8.9-0.2-16.7-0.7-27.2c-0.8-16.1-2.1-27.1-3.3-37.8c-1.6-14-2.5-17.6-3.5-20.8c-3-9.7-7.4-17.1-10.8-21.9 c-4.9-1.6-10.3-3.2-16.3-4.4C157.8,334.1,145.8,333.6,136,334z" class="st8"/><g><path d="M138.2,334.7c16.6-1.1,33.5,1.1,49.3,6.5" class="st9"/></g><g><path d="M192.6,349.6c8.7,14.7,8.7,32.7,10.7,49.7c3,28,3,56,1.5,83.6" class="st9"/></g><g><g><path d="M111.6,348.8c1.2,34.8,17.5,66.6,23,100.7c0.1,0.5,0.8,0.3,0.7-0.2c-5.4-34-21.7-65.7-22.9-100.5 C112.4,348.3,111.6,348.3,111.6,348.8L111.6,348.8z" class="st3"/></g></g><g><g><path d="M134.4,469.5c18.5,14,41.7,20.1,64.7,16.9c0.5-0.1,0.3-0.8-0.2-0.7c-22.8,3.1-45.8-3-64.1-16.8 C134.4,468.5,134,469.2,134.4,469.5L134.4,469.5z" class="st3"/></g></g></g><g id="hand_right_1_"><path d="M274.9,413.3c1.7-1.4,2.8-2.7,3.5-3.7c1.4-1.9,2.6-4.1,2.9-4.7c1.3-2.6,1.4-3.5,2.6-4.3 c1.2-0.8,2.6-0.8,3.5-0.7c1-1.1,2.1-2.3,3.4-3.4c2.7-2.4,5.5-4,7.8-5.2c1.2,0.4,4.2,1.7,6.4,4.7c1.7,2.3,2.3,4.7,2.5,6 c-0.9,0.5-2.1,1.2-3.5,2.1c-2.5,1.6-3.8,2.5-5.2,3.8c-2.6,2.4-2.1,3.4-4.8,6c-1.4,1.3-2.5,2-4.1,3c-1.9,1.2-4.7,2.7-8.3,4 c-2.6,1.5-5.8,0.7-7.2-1.5C273.3,417.6,273.5,415.1,274.9,413.3z" class="st7"/><path d="M188.7,342.2c-2.3,3.2-4.7,6.9-7,11c-5.7,10.5-8.7,20.5-10.2,28.5c1.4,4.2,3.4,10.1,6.1,17.1 c3.1,8,3,6.8,12.5,27.8c0,0,5,11.1,12.9,20.7c0.8,0.9,2.4,2.9,5.2,3.9c3.5,1.3,6.8,0.5,9.9-0.4c11.3-3.1,15.8-5.1,15.8-5.1 c4.9-2.2,11.9-5.2,21.9-9.5c8.9-4.9,17.9-9.7,26.8-14.6c-0.3-1.2-1.1-3.2-2.8-5.2c-1.5-1.8-3.2-2.8-4.3-3.4 c-3.9,1.1-7.9,2.1-12.1,3c-14.1,3.2-27.4,4.8-39.4,5.5c-2.6-9.6-5-17.8-7-24.3c-1.7-5.6-4.2-12.7-9.1-26.8 c-4.2-11.9-6.6-18.7-13.4-24.4C192.3,344.2,190.2,343,188.7,342.2z" class="st8"/><g><path d="M188.7,342.2c8.3,3.5,12.8,12.5,16.3,20.8c7.7,18.8,13.8,38.2,18.2,58" class="st9"/></g><g><path d="M223.8,421.7c17.1-1.2,34.1-3.9,50.8-8.1" class="st9"/></g><g><g><path d="M274.8,413.7c3.4,0.8,6.1,3.6,6.4,7.2c0,0.5,0.8,0.5,0.8,0c-0.4-3.8-3.2-7-7-7.9 C274.5,412.9,274.3,413.6,274.8,413.7L274.8,413.7z" class="st3"/></g></g><g><path d="M171.5,381.7c5.7,17.7,13.1,34.9,22,51.2c2.7,5.1,5.7,10.1,9.6,14.3c1.5,1.6,3.2,3.2,5.2,3.9 c3.1,1.2,6.6,0.5,9.9-0.4c22.1-5.8,42.3-17.1,62.2-28.3" class="st9"/></g><g><path d="M275.6,413c2.7-2.8,4.9-6,6.5-9.6c0.6-1.4,1.5-3.2,3-3.3c0.8-0.1,1.8,0.3,2.4-0.3" class="st9"/></g><g><path d="M281.9,419.9c2.1,0.5,4.2-0.7,6.1-1.9c3.2-2,6.4-4,8.6-7c0.8-1.1,1.4-2.2,2.2-3.2c1.7-2,4.1-3.2,6.4-4.4" class="st9"/></g><g><g><path d="M286.2,403.1c2.9-5.2,7.2-9.1,12.6-11.6c0.4-0.2,0.1-0.8-0.4-0.6c-5.5,2.5-9.9,6.6-12.9,11.9 C285.3,403.2,285.9,403.6,286.2,403.1L286.2,403.1z" class="st3"/></g></g><g><g><path d="M290.4,402.9c2.9-3.5,6.6-6,10.8-7.3c0.5-0.1,0.3-0.9-0.2-0.7c-4.4,1.4-8.2,4-11.2,7.5 C289.6,402.8,290.1,403.3,290.4,402.9L290.4,402.9z" class="st3"/></g></g><g><g><path d="M294.6,403.9c3.3-2.8,6.9-4.7,11.1-5.9c0.5-0.1,0.3-0.9-0.2-0.7c-4.2,1.2-8,3.3-11.4,6.1 C293.7,403.6,294.2,404.2,294.6,403.9L294.6,403.9z" class="st3"/></g></g></g><g id="head_1_"><path d="M172.7,306.2c0,0.4-0.1,2.1-1.2,4.3c-1.5,2.8-2.8,2.8-4.5,5.1c-2.7,3.7-0.8,6.4-3.1,8.4c-2,1.7-5.8,1.7-8,0.2 c-4.7-3.2-4.4-14.9,1.6-20.3c4.3-3.9,11.9-4.8,14.1-2.1C172.8,303.1,172.7,305.7,172.7,306.2z" class="st4"/><path d="M172.7,306.2c1,0.8,2.4,2.3,3.6,4.5c0.6,1.1,1.7,3.8,1.5,7.3c-0.2,2.6-1,4.4-1.5,5.5 c-0.8,1.7-2.3,4.9-5.8,6.8c-2.2,1.2-4.3,1.5-6,1.4c-0.4,1.1-0.9,2.2-1.3,3.3c0.6,0.6,1.2,1.1,1.8,1.7c-3.4-0.7-6.7-1.3-10.1-2 c4.7-5,6.7-7,6.9-6.8c0.1,0.1-0.5,1.1-0.6,1c0,0,1.6-3.3,3.2-7.3c1.7-4.1,1.2-4.1,2.1-5.4c1.8-2.7,3.5-3,4.9-5.7 C172.4,308.8,172.6,307.3,172.7,306.2z" class="st7"/><g><path d="M172.7,306.2c4,3.3,5.9,9,4.7,14.1c-0.5,1.9-1.3,3.7-2.3,5.4c-0.6,1-1.2,1.9-1.9,2.7 c-2.6,2.7-6.6,3.2-10.3,3.5" class="st9"/></g><g><path d="M164.4,302.4c1.4,0.1,2.7,0.3,4,0.7c1.9,0.6,4,1.8,4.3,3.8c0.2,1.3-0.4,2.7-1.3,3.7c-0.9,1-1.9,1.9-2.9,2.8 c-2.7,2.8-3.9,6.8-4.8,10.6" class="st9"/></g><g><g><path d="M174.6,311.9c-0.3-0.4-0.5-0.8-0.6-1.2c-0.2,0.2-0.3,0.3-0.5,0.5c0.4,0.1,0.7,0.5,0.6,1 c0,0.5,0.7,0.5,0.8,0c0.1-0.8-0.4-1.5-1.2-1.7c-0.3-0.1-0.5,0.2-0.5,0.5c0.2,0.6,0.4,1.1,0.8,1.5 C174.4,312.8,174.9,312.3,174.6,311.9L174.6,311.9z" class="st3"/></g></g><g><path d="M164.5,331.9c-0.3,1.1-0.7,2.1-1,3.2" class="st9"/></g><g><path d="M163.2,335c0.5,0.4,0.9,0.8,1.4,1.1c0.2,0.2,0.4,0.3,0.4,0.6s-0.4,0.4-0.5,0.1" class="st9"/></g><path d="M171.9,323.2c-2.9,3.9-7.7,2.3-12.8,8.1c-3.7,4.2-2.6,6.7-5.6,8.6c-5.2,3.2-14.7-0.7-20.1-6.6 c-6.5-7.1-8.8-18.9-4.4-23.4c2.7-2.8,6.2-1.5,8.2-4.6c2.5-4-1.9-8.3,0-11.5c2.7-4.6,17.6-4.3,27,3.8 C172.2,304.5,176.2,317.3,171.9,323.2z" class="st4"/></g><g id="chair"><path d="M38,334.1c-6.5,6.8-6.5,16.6-6.4,28.5c0.1,27.9,13,48.9,15.7,53.5c12.1,20.6,23.6,56.9,20.7,126.2 c10.3,8.6,28.5,21.3,54.2,27.8c47.1,11.9,86-5.6,97.7-11.4c-5.2-27.9-8.2-50.8-10-66.3c-4.4-38.5-8-63-19.3-95.6 c-8.3-23.9-14.8-33.7-24.1-41c-9.2-7.3-16.9-8.8-44-14.2C56.7,328.5,45.7,326.1,38,334.1z" class="st10"/><g><g><path d="M148.7,359c-7.9,31.6,10.5,60.5,21.4,88.8c11.8,30.5,17.5,63.2,17.1,95.9c0,0.5,0.7,0.5,0.8,0 c0.4-31-4.7-61.8-15.2-91c-10.9-30-31.7-60.3-23.4-93.5C149.6,358.7,148.8,358.5,148.7,359L148.7,359z" class="st6"/></g></g></g></g><g id="guy"><g id="tabs"><path d="M245.1,130.3c0,0-3.6,152.5-3.6,153.6c0.1,1.1,183.5,25.9,183.5,25.9L436,140.4L245.1,130.3z" class="st11"/><path d="M180,158.9" class="st4"/><polygon points="185.7 196.2 257.2 196.2 256.5 164.6 185.7 164.2" class="st4"/><rect width="63.3" height="5.6" x="189.1" y="167.5" class="st1"/><rect width="46.4" height="13.3" x="189.1" y="178.1" class="st1"/><rect width="36.1" height=".5" x="194.5" y="182.1" class="st1"/><rect width="30.7" height=".2" x="196.3" y="186.2" class="st1"/><path d="M247.8,132.3l-0.7,10.1L432,153.3c0.4-3.6,0.8-7.2,1.2-10.8C371.4,139.1,309.6,135.7,247.8,132.3z" class="st5"/><path d="M260.3,151.5l-2,58.5l100.1,8.4c1.5-20.8,1.7-42.2,3.1-63.1C327.4,153.4,294.5,153.5,260.3,151.5z" class="st1"/></g><g id="hand_right"><path d="M219.6,205.8c-0.1,2.1,1.7,3.7,4.5,6.1c3.5,3.1,6.3,4.1,12,7.3c2.9,1.6,5.2,3,6.8,4.1c0.8-0.3,2.6-1.1,4-3.1 c1.7-2.3,1.7-4.7,1.7-5.5c-0.9-1-2.3-2.7-3.9-5c-2.9-4.2-3.2-5.8-5.2-6.7c-2.3-1-3.4,0.5-6.3-0.7c-2.2-0.9-2.2-2.1-3.8-2.6 C225.8,198.5,219.8,202,219.6,205.8z" class="st7"/><path d="M305,209.2c-1,1.2-2.4,2.9-3.8,5.3c-3.2,5.3-4.3,10-4.6,11.2c-1.2,4.7-5,12.9-15.3,28.2 c-5.6-6.3-11.4-12.8-17.1-19.8c-5.5-6.6-10.6-13.1-15.5-19.4c-0.8,0.3-2,0.7-3.1,1.8c-2.7,2.5-2.7,6.1-2.6,6.8 c1.3,3,3.1,7.1,5.4,12.1c6.2,13.5,6.3,11.9,12.4,24.7c3.1,6.5,4.7,10.2,8.6,14.6c3.8,4.2,6.7,5.7,9,6.5c3.4,1.1,6.4,0.9,8.5,0.8 c2.1-0.2,5.8-0.7,11.4-3.4c4.3-2.1,7.8-4.6,13.1-9.1c4.2-3.6,9.6-8.6,15.7-15.1c0.5-0.9,8.1-16.1-0.6-30.6 C319.4,212,306.9,209.6,305,209.2z" class="st12"/><g><path d="M304.1,209.8c-2.5,3.2-3.9,7.1-5.4,10.8c-4.6,11.6-10.3,22.8-17.1,33.3" class="st9"/></g><g><path d="M248.6,214.7c10.4,13.5,21.3,26.6,32.7,39.2" class="st9"/></g><g><path d="M247.8,214.9c-2.7,1.4-4.7,4.1-5.3,7.1" class="st9"/></g><g><path d="M244.2,226.3c6.2,13.8,13,27.4,20.3,40.7c2.6,4.8,5.5,9.7,10.2,12.6c4.8,2.9,10.9,3,16.4,1.7 c9.9-2.5,18-9.5,25.4-16.5c3.6-3.4,7.1-6.8,10.5-10.3" class="st9"/></g><g><path d="M248,215.3c-2.3-4.4-5.1-8.6-8.5-12.2c-0.2-0.2-0.5-0.5-0.8-0.6c-0.5-0.1-1.1,0.4-1.2,0.9 c-0.1,0.5,0,1.1,0.2,1.6" class="st9"/></g><g><path d="M241.6,221.8c-4.8-2.2-9.5-4.7-14-7.5c-1.2-0.7-2.4-1.5-3.4-2.4c-1.9-1.7-3.2-3.9-4.5-6.1" class="st9"/></g><g><g><path d="M221.2,204.6c2.2,2.6,4.8,4.7,7.8,6.2c0.4,0.2,0.8-0.4,0.4-0.6c-2.9-1.6-5.5-3.6-7.7-6.1 C221.4,203.7,220.9,204.2,221.2,204.6L221.2,204.6z" class="st3"/></g></g><g><g><path d="M223.5,202.6c2,2.2,4.2,4.2,6.6,6c0.4,0.3,0.8-0.4,0.4-0.6c-2.4-1.7-4.5-3.7-6.4-5.8 C223.7,201.7,223.1,202.2,223.5,202.6L223.5,202.6z" class="st3"/></g></g><g><g><path d="M225.8,200.9c2,2.3,4.4,4.1,7.3,5.2c0.5,0.2,0.6-0.6,0.2-0.7c-2.7-1.1-5.1-2.8-6.9-5 C226,200,225.5,200.5,225.8,200.9L225.8,200.9z" class="st3"/></g></g><g><g><path d="M229.2,200c1.1,1.1,2.4,2,3.9,2.7c0.4,0.2,0.8-0.5,0.4-0.6c-1.4-0.6-2.6-1.5-3.7-2.5 C229.3,199.1,228.8,199.6,229.2,200L229.2,200z" class="st3"/></g></g></g><g id="torso"><path d="M305,209.2c0.1,2.2,0.3,5.3,0.9,9c0.4,2.4,1.4,8.8,6.4,22.2c1,2.8,3.1,7.9,7.3,18.2 c4.3,10.4,4.3,10.4,5.2,12.6c2.1,5.6,4.9,13.7,7.1,24.2c18.6,2.3,37.2,4.7,55.8,7c0-2,0-5,0.1-8.7c0.1-10.7,0.4-15.5,0.4-19.8 c0.1-8.6-0.7-15-1.6-23.2c-2.3-19-6.7-36-10.3-47.6c-4.9-1.2-10.8-2.3-17.7-2.9c-3.7-0.3-10.9-0.7-19.9,0.2 C330.7,201.3,318.8,203.4,305,209.2z" class="st12"/><g><path d="M305,209.2c22.2-9.7,47.7-11.9,71.3-6" class="st9"/></g><g><g><path d="M306.2,220.9c5.3,25.2,19.5,47.4,25.2,72.5c0.1,0.5,0.8,0.3,0.7-0.2c-5.8-25.1-19.9-47.3-25.2-72.5 C306.8,220.2,306.1,220.4,306.2,220.9L306.2,220.9z" class="st6"/></g></g><g><path d="M377.6,209c9,28.6,12.4,58.9,9.9,88.7" class="st9"/></g></g><g id="hand_left"><path d="M362,318.9c-2.4-0.7-3-2.5-5.1-2.3c-1.7,0.2-2.8,1.4-3.6,2.4c-1.9,2.2-1.8,3.7-3.5,7.9 c-1.9,4.7-2.9,4.7-2.7,6.3c0.6,3.8,6.6,5.9,7.9,6.4c1.8,0.6,3.4,0.9,4.5,1c0.7-1.7,1.6-3.1,2.3-4c1.1-1.5,2.1-2.8,3.8-3.8 c1.6-0.9,2.3-0.7,3.2-1.7c0.5-0.6,0.7-1.1,1.3-3.1c0.9-3,1.3-4.5,1.5-5.8c0.3-2.7,0.5-4.1-0.1-4.7 C369.8,316.1,366.3,320.1,362,318.9z" class="st7"/><path d="M350.7,222.1c0.4-2.4,1.6-7.2,5.6-11.5c7.6-8.3,18.6-7.5,20.1-7.4c1,0.9,2.4,2.2,3.9,4 c3.3,4,4.8,7.8,5.9,10.6c3.9,10,5.8,14.9,6.8,18c0.5,1.5,3.1,9.7,5.5,21c1.4,6.7,1.8,10.1,1.1,14.3c-0.6,3.7-1.8,6.3-3.5,9.5 c-5.3,10.3-10.2,16.8-14.4,23.2c-2.6,4-6.2,9.9-9.9,17.5c-0.6-0.6-2.1-2-4.5-2.7c-2.4-0.6-4.4-0.1-5.2,0.1 c2.1-7.4,3.9-13.3,5.1-17.3c2.3-7.5,3.7-11.5,5.7-18.5c1.5-5.2,2.5-9.4,3.2-12.1c-0.8-2.5-1.9-5.8-3.5-9.8 c-2.3-5.7-4.6-10.1-7.6-15.5C361.5,239.7,356.8,231.6,350.7,222.1z" class="st12"/><g><g><path d="M350.4,223.3c9.8,12.8,16.7,27.2,23.2,41.8c1.2,2.7,2.5,4.6,1.9,7.7c-0.3,1.8-1.2,3.9-1.7,5.7 c-1.4,4.4-2.7,8.8-4.1,13.2c-2.7,8.8-5.4,17.7-8.1,26.5c-0.1,0.5,0.6,0.7,0.7,0.2c2.9-9.5,5.8-18.9,8.7-28.4 c1.5-5,3.1-10.1,4.6-15.1c0.7-2.5,1.2-3.7,0.4-6.1c-2.8-7.8-6.9-15.6-10.7-23c-4.1-8-8.8-15.7-14.2-22.9 C350.8,222.6,350.1,222.9,350.4,223.3L350.4,223.3z" class="st6"/></g></g><g><path d="M378.7,204.9c11.1,15.8,15.7,35.1,20.1,53.9c0.5,2.2,1,4.4,1.1,6.6c0.2,4.7-1.3,9.4-3.3,13.7 c-6.7,14.7-18,26.8-25,41.4" class="st9"/></g><g><g><path d="M362.5,319.3c3.1-0.6,6.4-0.6,8.5,2.1c0.3,0.4,0.8-0.2,0.5-0.5c-2.2-2.9-5.9-2.9-9.2-2.3 C361.8,318.6,362,319.4,362.5,319.3L362.5,319.3z" class="st3"/></g></g><g><path d="M362,318.9c-1.1-0.6-2.2-1.1-3.3-1.7c-0.6-0.3-1.2-0.5-1.8-0.6c-1.6-0.2-3.2,0.9-3.6,2.4" class="st9"/></g><g><path d="M371.7,321.4c-0.5,2.9-1.2,5.7-2.2,8.4c-0.2,0.5-0.4,0.9-0.7,1.3c-0.5,0.5-1.1,0.7-1.7,0.9 c-4.4,1.8-6.8,6.5-8.7,10.9" class="st9"/></g><g><g><path d="M354.7,322c-4.7,1.9-6.5,6.6-8,11.1c-0.2,0.5,0.6,0.7,0.7,0.2c1.4-4.2,3.1-8.7,7.5-10.5 C355.3,322.5,355.1,321.8,354.7,322L354.7,322z" class="st3"/></g></g><g><g><path d="M356,325.3c-3.4,2.6-5.3,6.4-5.4,10.7c0,0.5,0.7,0.5,0.8,0c0.1-4,1.9-7.6,5.1-10 C356.8,325.7,356.4,325,356,325.3L356,325.3z" class="st3"/></g></g><g><g><path d="M359.3,327.1c-3,2.4-4.8,5.7-5.2,9.5c0,0.5,0.7,0.5,0.8,0c0.4-3.6,2.1-6.7,5-9 C360.2,327.3,359.6,326.8,359.3,327.1L359.3,327.1z" class="st3"/></g></g><g><g><path d="M362.2,329.9c-2.8,2.5-4.8,5.6-5.9,9.2c-0.1,0.5,0.6,0.7,0.7,0.2c1.1-3.5,3-6.5,5.7-8.9 C363.1,330.1,362.5,329.6,362.2,329.9L362.2,329.9z" class="st3"/></g></g></g><g id="head"><path d="M335.5,211.8c0,0.5,0.1,1,0.2,1.3c-0.1,0.1-0.6,1.2-0.2,1.8c0.4,0.4,1.1,0.3,2.1,0.2c0.9-0.1,2.1-0.3,3.4-1.2 c0.8-0.5,1.4-1.3,2.7-2.9c0.5-0.6,0.7-0.9,0.8-1.3c0.2-1-0.4-2.2-1.3-2.8c-0.9-0.5-1.7-0.2-2.6,0 C338.5,207.6,335.6,209.3,335.5,211.8z" class="st7"/><g><g><path d="M335.3,212.5c0.3,0.4,0.6,0.8,1,1.1c0.4,0.3,0.9-0.2,0.5-0.5c-0.3-0.3-0.6-0.6-0.9-1 C335.7,211.8,335,212.1,335.3,212.5L335.3,212.5z" class="st3"/></g></g><g><path d="M335.6,213.1c-0.5,0.4-0.5,1.2-0.2,1.8s1.1,0.8,1.7,0.8s1.3-0.3,1.9-0.6c2.3-1.2,4.2-3.1,5.4-5.4" class="st9"/></g><path d="M320.4,197.1c-0.1,0.6-0.1,1.4,0.1,2.8c0.3,1.9,0.6,4.1,2.1,6.5c0.7,1.1,2.3,3.7,5.7,5 c3.5,1.4,6.7,0.6,7.7,0.3c2.6-0.7,4.2-2.1,5.4-3.1c1.2-1,2.8-2.5,3.9-4.9c0.5-1.1,0.6-2.1,0.8-2.9c0.5-3,0-5.3-0.3-6.9 c-0.4-2-0.6-3.1-1.3-4.1c-1.9-3.1-5.9-3.7-7-3.9c-7.7-1.3-13.7,5-15.3,7.2C321.7,193.8,320.7,195.1,320.4,197.1z" class="st7"/><ellipse cx="333.6" cy="197.6" class="st3" rx="1" ry="1.4"/><g><g><path d="M332.3,193.3c1.4-0.7,3-0.2,3.7,1.2c0.2,0.4,0.9,0,0.6-0.4c-0.9-1.8-3-2.4-4.7-1.5 C331.5,192.9,331.9,193.5,332.3,193.3L332.3,193.3z" class="st3"/></g></g><path d="M328.1,177.6c-0.9-0.3-6.1-1.9-10.9,0.9c-4.8,2.8-6,7.9-6.2,9.1c-0.3,1.6-0.7,3.8,0.5,6.1 c1.6,2.9,4.7,3.6,5.2,3.7c2.3,0.5,4.2-0.2,5.4-0.7c2.8-1.1,2.8-2.3,6.4-4.3c1.6-0.9,3.2-1.8,5.4-2.1c1.8-0.3,3.7-0.5,5.3,0.5 c1.3,0.8,1.6,1.9,3.9,3.3c0.6,0.4,1.3,0.7,1.9,0.5c0.7-0.2,1-1,1.2-1.2c0.1-0.8,0.3-2.8-0.7-4.8c-0.8-1.6-2-2.4-3-3.1 c-2-1.4-3.7-1.8-4.7-2.1C332.3,181.5,332.4,179,328.1,177.6z" class="st3"/><g><path d="M320.5,198.8c0.1,3.8,1.5,7.6,4.2,10.2c2.7,2.6,6.8,3.9,10.4,3c1-0.3,1.9-0.7,2.8-1.1 c4.3-2.2,8.2-6.2,8.1-11" class="st7"/></g><g><g><path d="M314.8,195.5c-5.4-3.2-4-10.8-0.2-14.6c4.5-4.6,10.5-4,15.6-1.1c2.2,1.2,4.2,2.6,6.6,3.6 c5.3,2.3,9.3,4,8.9,10.9c0,0.5,0.7,0.5,0.8,0c0.3-5.9-1.6-8.4-7-10.6c-5.7-2.3-11.3-7.5-17.8-6.9c-8.6,0.8-16.3,13.9-7.2,19.4 C314.9,196.4,315.3,195.8,314.8,195.5L314.8,195.5z" class="st3"/></g></g><g><g><path d="M314.7,195.8c3.6,3.1,7.5,1.6,11-0.9c1.8-1.2,3.3-3.1,5.4-3.9c1.6-0.4,3.1-0.8,4.7-1.2c2.9-0.1,5,1,6.4,3.4 c1.1,1.1,1,1.8,2.8,1.6c0.5,0,0.5-0.8,0-0.8c-1.7,0.2-3.2-3.1-4.6-3.9c-1.6-0.9-3.6-1.2-5.5-1.1c-6.5,0.5-13.1,11.8-19.7,6.2 C314.8,195,314.3,195.5,314.7,195.8L314.7,195.8z" class="st3"/></g></g><g><g><path d="M327.8,196.5c-0.6,3.9-1,8.2,2.4,10.8c0.4,0.3,0.8-0.4,0.4-0.6c-3.1-2.4-2.6-6.5-2.1-10 C328.6,196.2,327.8,196,327.8,196.5L327.8,196.5z" class="st3"/></g></g></g></g></svg>