<svg xmlns="http://www.w3.org/2000/svg" xmlns:xlink="http://www.w3.org/1999/xlink" width="500" zoomAndPan="magnify" viewBox="0 0 375 374.999991" height="500" preserveAspectRatio="xMidYMid meet" version="1.0"><defs><clipPath id="124b02865c"><path d="M 57.910156 160 L 188 160 L 188 274.351562 L 57.910156 274.351562 Z M 57.910156 160 " clip-rule="nonzero"/></clipPath><clipPath id="9179eb2318"><path d="M 187 100.351562 L 317.410156 100.351562 L 317.410156 215 L 187 215 Z M 187 100.351562 " clip-rule="nonzero"/></clipPath></defs><g clip-path="url(#124b02865c)"><path fill="#0652e9" d="M 145.289062 241.015625 L 145.289062 256.761719 L 73.757812 223.628906 L 73.757812 210.851562 L 145.289062 177.714844 L 145.289062 193.46875 L 91.191406 217.089844 L 91.191406 217.386719 Z M 187.769531 160.214844 L 68.144531 160.214844 C 62.5 160.214844 57.921875 164.78125 57.921875 170.414062 L 57.921875 264.070312 C 57.921875 269.699219 62.5 274.265625 68.144531 274.265625 L 154.5625 274.265625 L 187.769531 160.214844 " fill-opacity="1" fill-rule="nonzero"/></g><g clip-path="url(#9179eb2318)"><path fill="#62e1e9" d="M 301.589844 164.265625 L 230.058594 196.957031 L 230.058594 181.203125 L 285.347656 157.582031 L 285.347656 157.28125 L 230.058594 133.65625 L 230.058594 117.90625 L 301.589844 150.597656 Z M 220.980469 100.40625 L 187.769531 214.457031 L 307.203125 214.457031 C 312.847656 214.457031 317.425781 209.890625 317.425781 204.257812 L 317.425781 110.601562 C 317.425781 104.972656 312.847656 100.40625 307.203125 100.40625 L 220.980469 100.40625 " fill-opacity="1" fill-rule="nonzero"/></g></svg>