<svg xmlns="http://www.w3.org/2000/svg" xmlns:xlink="http://www.w3.org/1999/xlink" style="enable-background:new 0 0 2000 2000" id="Illustration" x="0" y="0" version="1.0" viewBox="0 0 2000 2000" xml:space="preserve"><style type="text/css">.st0{fill:#ebf1ff}.st1{clip-path:url(#SVGID_2_)}.st2{fill:none;stroke:#9dbcfd;stroke-width:2.5;stroke-linecap:round;stroke-linejoin:round;stroke-miterlimit:10}.st3{fill:#202970}.st4{fill:#25293f}.st5{fill:#10173a}.st6{fill:#d31c50}.st7{fill:#1f296f}.st8,.st9{fill:none;stroke:#ff6089;stroke-width:5;stroke-linecap:round;stroke-linejoin:round;stroke-miterlimit:10}.st9{stroke-width:2.5}.st10{fill:#ff6089}.st11{fill:#1f2970}.st12{fill:#ad64f3}.st13{fill:#fff}.st14{fill:#0d50ab}.st15{fill:#1e7af5}.st16{fill:none;stroke:#1f296f;stroke-width:2.5;stroke-linecap:round;stroke-linejoin:round;stroke-miterlimit:10}.st17{fill:#ebf2ff}.st18{fill:#8b41d2}.st19{stroke:#1f2970}.st19,.st20,.st21,.st22{fill:none;stroke-width:2.5;stroke-linecap:round;stroke-linejoin:round;stroke-miterlimit:10}.st20{stroke:#202970}.st21{stroke:#659bea}.st22{stroke:#ad64f3}.st23{fill:#b2e3f2}.st24{fill:#9dbcfd}.st25{fill:none;stroke:#10173a;stroke-width:2.5;stroke-linecap:round;stroke-linejoin:round;stroke-miterlimit:10}.st26{fill:#13ac66}.st27{fill:#fff;stroke:#1f296f;stroke-width:2.5;stroke-linecap:round;stroke-linejoin:round;stroke-miterlimit:10}.st28{fill:#12ae67}.st29{fill:#14c664}.st30{fill:#ffca60}.st31{fill:#ffa161}</style><switch><g><path d="M285.2,562.51l1383.27-69.3c38.85-1.95,70.67,30.48,67.99,69.28l-53.9,781.8 c-2.36,34.17-30.85,60.62-65.1,60.44l-1243.63-6.81c-32.68-0.18-60.13-24.63-64.07-57.07l-85.74-705.69 C219.48,597.78,247.59,564.39,285.2,562.51z" class="st0"/><g><defs><path id="SVGID_1_" d="M285.2,562.51l1383.27-69.3c38.85-1.95,70.67,30.48,67.99,69.28l-53.9,781.8 c-2.36,34.17-30.85,60.62-65.1,60.44l-1243.63-6.81c-32.68-0.18-60.13-24.63-64.07-57.07l-85.74-705.69 C219.48,597.78,247.59,564.39,285.2,562.51z"/></defs><clipPath id="SVGID_2_"><use style="overflow:visible" xlink:href="#SVGID_1_"/></clipPath><g class="st1"><line x1="199.29" x2="1922.14" y1="1373.68" y2="1373.68" class="st2"/><line x1="479.27" x2="479.27" y1="466" y2="1004.26" class="st2"/><line x1="306.87" x2="602.91" y1="768.31" y2="768.31" class="st2"/><line x1="266.33" x2="609.33" y1="1004.26" y2="1004.26" class="st2"/><path d="M381.03,465.59c0,0-44.57,295.6-136.37,425.77" class="st2"/><path d="M316,469c0,0,21,164-87.42,338.66" class="st2"/><path d="M296.88,469.48c0,0-2.66,101.06-82.42,252.7" class="st2"/><line x1="602.91" x2="602.91" y1="455.34" y2="1004.26" class="st2"/><line x1="625.52" x2="625.52" y1="469" y2="1004.26" class="st2"/><line x1="369.33" x2="602.91" y1="537.8" y2="537.8" class="st2"/><line x1="344.95" x2="344.95" y1="637.89" y2="1004.07" class="st2"/><path d="M217.14,1004.07" class="st2"/><path d="M217.14,938.68" class="st2"/><g><polyline points="1875.86 760.65 1566.24 760.65 1566.24 788.11 1875.86 788.11" class="st2"/><g><path d="M1652.46,760.65h-33.75v-84.27c0-9.32,7.56-16.87,16.88-16.87h0c9.32,0,16.87,7.56,16.87,16.87V760.65z" class="st2"/><rect width="92.45" height="147.94" x="1687.3" y="612.71" class="st2"/><line x1="1687.3" x2="1779.75" y1="634.76" y2="634.76" class="st2"/><line x1="1728.64" x2="1728.64" y1="634.76" y2="758.23" class="st2"/><circle cx="1753.71" cy="659.5" r="7.37" class="st2"/><circle cx="1753.71" cy="696.5" r="7.37" class="st2"/></g></g></g></g><g><g><path d="M719.96,1538.69l84.43,21.85c7.09,1.83,13.41,5.86,18.07,11.51l24.17,29.31l-13.33,4l-18.7-21.07 c-4.97-5.6-11.51-9.6-18.76-11.48l-93.2-24.12L719.96,1538.69z" class="st3"/><circle cx="844.63" cy="1620.36" r="19.67" class="st3"/><path d="M712.56,1538.69l-84.43,21.85c-7.09,1.83-13.41,5.86-18.07,11.51l-24.17,29.31l13.33,4l18.7-21.07 c4.97-5.6,11.51-9.6,18.76-11.48l93.2-24.12L712.56,1538.69z" class="st3"/><circle cx="587.89" cy="1620.36" r="19.67" class="st3"/><path d="M702.63,1549.07l22.64,20.9c6.28,5.8,10.76,13.27,12.91,21.55l7.88,30.34l11.58-1.65l-6.38-39 c-0.97-5.95-3.9-11.4-8.32-15.49l-23.76-22.02L702.63,1549.07z" class="st3"/><circle cx="755.94" cy="1619.85" r="19.67" class="st4"/><rect width="23.1" height="319.42" x="702.63" y="1230.35" class="st3"/><path d="M717.89,1549.77h-7.6c-6.6,0-12-5.4-12-12v-31.41c0-6.6,5.4-12,12-12h7.6c6.6,0,12,5.4,12,12v31.41 C729.89,1544.37,724.49,1549.77,717.89,1549.77z" class="st3"/></g><g><path d="M539.54,649.57l-17.96,85.85c-2.53,12.07-7.52,23.5-14.66,33.55l0,0c-20.64,29.06-27.79,65.59-19.62,100.28 l67.77,287.79c6.83,29,25.41,53.86,51.3,68.63l53.05,30.26c23.92,13.64,50.97,20.81,78.51,20.81h217.01 c20.73,0,39.85-11.2,49.99-29.28l0,0c3.75-6.7-1.08-14.96-8.76-14.96h-42.39c-10.12,0-20.06-2.7-28.79-7.83l-64.57-37.94 c-21.78-12.79-35.42-35.91-36.11-61.16l-7.24-266.77c-0.99-36.63-18.13-70.94-46.81-93.74l-13.21-10.5 c-12.14-9.65-21.57-22.29-27.36-36.67l-31.55-78.34c-8.02-19.92-27.53-32.79-49-32.33l-60.17,1.29 C564.95,609.05,544.46,626.06,539.54,649.57z" class="st5"/><path d="M528.13,844.11l-27.36,4.78c-9.43,1.65-15.68,10.86-13.5,20.19c0.01,0.06,0.03,0.12,0.04,0.17l67.77,287.79 c0.01,0.05,0.03,0.11,0.04,0.16c2.06,8.69,10.99,13.89,19.62,11.61l19.5-5.15L528.13,844.11z" class="st6"/><path d="M555.59,627.9l-17.96,85.85c-2.53,12.07-7.52,23.5-14.66,33.55l0,0c-20.64,29.06-27.79,65.59-19.62,100.28 l67.77,287.79c6.83,29,25.41,53.86,51.3,68.63l53.05,30.26c23.92,13.64,50.97,20.81,78.51,20.81h217.01 c20.73,0,39.85-11.2,49.99-29.28v0c3.75-6.7-1.08-14.96-8.76-14.96h-42.39c-10.12,0-20.06-2.7-28.79-7.83l-64.57-37.94 c-21.78-12.79-35.42-35.91-36.11-61.16l-7.24-266.77c-0.99-36.63-18.13-70.94-46.81-93.74l-13.21-10.5 c-12.14-9.65-21.57-22.29-27.36-36.67l-31.55-78.34c-8.02-19.92-27.53-32.79-49-32.33l-60.17,1.29 C580.99,587.38,560.5,604.39,555.59,627.9z" class="st7"/></g><path d="M605.73,617.32l-7.18,99.33c-0.66,9.09-4.11,17.75-9.87,24.8L539.97,801" class="st8"/><path d="M675.6,615.25l22.69,84.22c3.47,12.89,10.52,24.54,20.33,33.6l55.41,51.17" class="st8"/><path d="M831.55,831.52l-10.04,8.4c-9.94,8.32-15.42,20.81-14.8,33.75l9.94,207.68c0.47,9.71,4.33,18.96,10.93,26.1 l16.1,17.45" class="st9"/><path d="M599.81,1133.39l-15.46,33.89c-6.05-9.76-10.54-20.51-13.23-31.91l-67.77-287.78l23.19,10.4 c11.73,5.27,20.35,15.68,23.33,28.19l52.56,220.4C604.57,1115.56,603.65,1124.99,599.81,1133.39z" class="st10"/></g><g><path d="M738.73,744.11c0,0-60.84-38.83-66.3-57.93c-5.46-19.1,28.81-66.04,93.26-52.76 S773.56,768.78,738.73,744.11z" class="st11"/><path d="M676.61,686.18c-9.87-27.07,48.42-52.33,48.42-52.33s39.33,3.22,19.62-4.69s-60.32,8.88-77.67,37.93 c-17.36,29.05-23.69,50.71-23.69,50.71l25.71-3.29c0,0,0.02,0.02,0.02,0.03c9.96-1.51,20.34-2.64,30.72-2.71 C688.48,703.37,680.38,696.54,676.61,686.18z" class="st12"/><path d="M1057.02,1513.46c-15.61,1.19-27.96,13.66-29.02,29.28c-1.07,15.74-2.96,37.32-6.3,62.09 c-3.54,26.27,35.55,26.04,122.53,36.88c43.86,5.46,63.23-28.11,48.45-31.47c-14.79-3.36-78.3-38.3-86.23-48.29 c-3.71-4.68-4.65-12.74-7.33-24.74c-3.4-15.24-17.55-25.62-33.11-24.43L1057.02,1513.46z" class="st5"/><path d="M1050.78,1538.13c9.93,16.64,11.6,42.69,22.27,32.41c11.65-11.23,13.28-13.43,23.29-9.44 c4.12,1.64,3.3-7.11,3.24-7.5c-0.01-0.01-0.01-0.03-0.01-0.03c-1.43-4.45-2.75-9.71-3.9-14.84 c-2.89-12.96-14.92-21.79-28.16-20.77l-7.66,0.57c-0.3,0.03-0.61,0.05-0.91,0.09 C1055.47,1523.52,1045.01,1528.45,1050.78,1538.13z" class="st13"/><path d="M744.84,1527.58c0,0-20.85,44.65-24.89,61.74c-2.67,11.32-5.09,38.46-6.68,44.3 c-1.59,5.84-4.75,24.42,11.42,25.8c16.18,1.38,84.56,7.77,90.29,0.55c5.72-7.22-12.97-33.28-17.08-40.93 c-4.11-7.65-8.45-84.88-8.45-84.88L744.84,1527.58z" class="st5"/><path d="M792.64,1535.56l-10.69,43.59c0,0-9.62-4.96-18.36-5.32c-16.16-0.66-18.89,9.68-20.92-2.64 c-2.02-12.32-7.06-41.71,8.14-40.91C766.01,1531.08,794.46,1527.95,792.64,1535.56" class="st13"/><path d="M767.85,1012.32c0,0,167.26,39.98,284.71,120.92c19.81,13.65,32.59,35.36,35.05,59.3 c5.88,57.15,15.31,178.05,10.26,332.03c-0.48,14.71-12.67,26.33-27.38,26.15l-13.91-0.17c-13.36-0.17-24.59-10.06-26.45-23.29 l-41.67-296.38l-268.19-93.94L767.85,1012.32z" class="st14"/><path d="M622.55,1015.72l-11.43,85.71c-6.72,50.44,28.71,96.77,79.15,103.5l86.34,11.51l0,0 c-11.88,53.62-20.08,107.99-24.54,162.73l-12.45,152.9c-0.94,11.57,7.01,21.98,18.42,24.12l14.86,2.78 c11.35,2.13,22.48-4.61,25.85-15.66c17.54-57.5,69.25-228.9,91.33-322.69c6.05-25.73-5.15-52.42-27.78-66.08l-77.76-46.92 l9.85-85.03L622.55,1015.72z" class="st15"/><path d="M799.07,1542.24c0,0,64.2-207.76,90.99-321.6c6.05-25.73-5.15-52.42-27.78-66.08l-77.76-46.92" class="st16"/><path d="M795.91,930.71l21.95,14.33l-2.05,27.36l-39.6,19.32l-12.78,1c0,0-17.81-8.17-16.76-14.88 C747.72,971.15,783.33,929.25,795.91,930.71" class="st17"/><path d="M877.1,755.55l40.08,160.51c4.85,19.41-6.94,39.07-26.34,43.95h0c-18.45,4.64-37.34-5.76-43.29-23.83 l-51.72-157.14c-7.68-23.35,6.07-48.31,29.91-54.29h0C848.43,719.06,871.43,732.86,877.1,755.55z" class="st12"/><path d="M825.74,724.75c22.69-5.69,45.69,8.11,51.36,30.8l40.08,160.51" class="st16"/><path d="M813.79,715.98c-52.09-3.86-122.51-6.5-170.52,1.82c-22.34,3.87-37.26,25.19-33.24,47.5l24.94,138.44 l-18.18,122.15c-1.7,11.4,5.66,22.2,16.9,24.76c39.49,8.99,131.12,25.86,212.34,11.32c17.95-3.21,29.57-20.8,25.65-38.61 l-16.31-74.09l19.32-159.24C879.26,752.47,851.51,718.78,813.79,715.98z" class="st18"/><path d="M786,793c0.29,0.29,0.62,0.51,0.97,0.69c1.84-8.56,4.17-17.12,7.03-25.69c4.22-17.74,2.04-35.47,2.46-53.21 c-38.1-2.39-82.76-3.72-120.85-0.84c18.97,13.74,37.53,27.75,59.4,38.04C755,761,768,780,786,793z" class="st13"/><polygon points="634.97 903.74 629.14 942.92 636.67 973.06 683.56 784.24 628.97 870.48" class="st11"/><path d="M683.56,784.25L622.55,924.7l133.09,29.56c13.09,2.91,21.09,16.17,17.55,29.1l-0.15,0.54 c-3.07,11.24-13.58,18.65-25.08,17.78L575.23,988.6c-24.56-1.86-40.93-26.17-33.41-49.63l59.5-185.68 c7.39-23.07,32.05-35.82,55.15-28.52l0,0C681.35,732.63,693.96,760.31,683.56,784.25z" class="st12"/><path d="M656.47,724.77c24.89,7.86,37.49,35.54,27.1,59.48L622.55,924.7" class="st16"/><path d="M622.55,924.7l133.09,29.56c13.09,2.91,21.09,16.17,17.55,29.1" class="st16"/><g><path d="M739.5,961.7l43.6-31.34c6.52-4.69,15.09-5.42,22.32-1.92l47.38,22.99c2.77,1.35,3.67,4.86,1.89,7.37v0 c-1.23,1.73-3.42,2.5-5.45,1.91l-34.96-10.1l6.43,17.93c1.32,3.69,0.15,7.82-2.92,10.26l-24.63,19.61 c-2.69,2.14-6.07,3.24-9.5,3.09l-11.75-0.52c-2.06-0.09-3.87-1.4-4.6-3.33l-0.38-0.99c0,0-7.85,1.92-16.37,0.93 c-8.05-0.93-14.68-6.61-16.6-14.49C732.4,976.65,732.43,968.3,739.5,961.7z" class="st10"/><path d="M750.57,997.6c-8.05-0.93-14.68-6.61-16.6-14.49c-1.58-6.47-1.54-14.82,5.53-21.41l43.6-31.34" class="st16"/><path d="M805.43,928.45l47.38,22.99c2.77,1.35,3.67,4.86,1.89,7.37" class="st16"/><path d="M766.94,996.67c0,0-7.85,1.92-16.37,0.93" class="st16"/><path d="M817.8,978.81l-24.63,19.61c-2.69,2.14-6.07,3.24-9.5,3.09" class="st16"/><path d="M793.17,998.42c-2.69,2.14-6.07,3.24-9.5,3.09l-11.75-0.52c-2.06-0.09-3.87-1.4-4.6-3.33" class="st16"/><path d="M814.29,950.62l6.43,17.93c1.32,3.69,0.15,7.82-2.92,10.26" class="st16"/><path d="M854.7,958.81c-1.23,1.73-3.42,2.5-5.45,1.91l-34.96-10.1" class="st16"/><line x1="814.84" x2="796.61" y1="980.93" y2="942.93" class="st16"/><path d="M783.99,952.73l18.65,31.02c1.66,2.76,1.02,6.32-1.5,8.33l-1.66,1.32" class="st16"/><path d="M771.89,965.99l20.35,24.94c2.14,2.62,1.78,6.48-0.8,8.66l0,0" class="st16"/><path d="M766.94,996.67c0,0,4.78-1.12,7.09-4.77" class="st16"/><line x1="814.29" x2="810.35" y1="950.62" y2="940.71" class="st16"/></g><g><circle cx="826.74" cy="572.37" r="46.45" class="st11"/><path d="M728.65,652.48l-8.98,55.05c-1.31,8.06-0.92,16.31,1.26,24.18c5.29,19.08,16.71,38.92,43.34,41.76 c37.54,4.01,27.74-46.75,27.74-46.75l6.77-65.52C798.79,661.21,769.75,638.83,728.65,652.48z" class="st10"/><path d="M748.05,677.01c3.18,30.02,22.52,49.98,45.51,65.98c-0.3-9.25-1.54-16.27-1.54-16.27l0.68-6.57 C776.33,706.79,759.96,695.25,748.05,677.01z" class="st11"/><path d="M850.51,568.61c0,0,9.08,15.13,4.4,57.76c-2.15,19.55,3.93,59.08-16.97,82.54 c-37.69,42.32-84.84,0.37-103.12-33.7c-15.64-29.16-25.72-94.06-6.07-116.74C761.78,520.33,841.68,523.66,850.51,568.61z" class="st10"/><g><path d="M837.76,620.58" class="st11"/><circle cx="801.03" cy="634.24" r="5.95" class="st11"/><path d="M834.28,629.16c0,0-1.33,15.2,4.55,25.51c5.88,10.31,2.85,13.55-10,17.15" class="st16"/><path d="M825.95,686.18" class="st19"/><path d="M826.74,687.18c0,0-18.74,4.27-28.74-12.15" class="st16"/><ellipse cx="847.66" cy="636.38" class="st11" rx="5.62" ry="5.22" transform="matrix(0.0678 -0.9977 0.9977 0.0678 155.2404 1438.9188)"/><path d="M807.69,612.58c-5.59-2.11-15.83-3.21-25.59,3.71c-13.33,9.45,16.12,2.76,22.59,6.59 C811.15,626.71,814.53,615.16,807.69,612.58z" class="st7"/><path d="M843,615.99c3.89-2.22,9.67,1.03,11.05,3.41c5.02,8.72-6,3.51-11.14,5.66 C837.76,627.22,839.45,618.02,843,615.99z" class="st7"/></g><path d="M858.05,584.8c31.96-19.8,12.35-65.29-29.66-63.45s-95.82-13.2-105.49,24.81c0,0-15.01,6.17-20.83,33.26 c-3.06,14.24,13.87,50.09,13.87,50.09l27.31,13.04c0,0,4.02-27.14,8.37-31.1c0.46-0.42,1.05-0.88,1.75-1.41 c15.3-11.71,34.77-16.17,53.78-13.1C821.1,599.19,838.31,597.03,858.05,584.8z" class="st11"/><path d="M744.64,644.67c0,0-2.61-26.21-20.91-25.85c-18.29,0.36-19.45,37.82,11.87,44.26" class="st10"/></g><path d="M699.72,711.82c-10.38,0.07-20.76,1.2-30.72,2.71c0.46,0.65,14.56,17.23,41.84,37.28 c17.83,13.1,76.96,43.41,76.96,43.41C758.05,751.48,717.88,725.47,699.72,711.82z" class="st12"/><path d="M622.55,924.7c0,0-17.58-5.65-33.64,0" class="st16"/><g><path d="M855.9,943.85c0,20.91,16.95,37.86,37.86,37.86s37.86-16.95,37.86-37.86c0-12.34-5.91-23.31-15.05-30.22 c-6.34-4.8-14.25-7.64-22.81-7.64c-12.07,0-22.81,5.65-29.75,14.44C858.93,926.87,855.9,935,855.9,943.85z" class="st12"/><path d="M916.57,913.63c-6.34-4.8-14.25-7.64-22.81-7.64c-12.07,0-22.81,5.65-29.75,14.44" class="st16"/><circle cx="911.36" cy="948.72" r="27.77" class="st10"/><path d="M911.94,920.48l-10.98,3.47c-8.42,2.66-14.24,10.34-14.51,19.17l-0.21,6.68 c-0.18,5.84,1.34,11.61,4.37,16.6l9.09,14.96c2.18,3.58,6.44,5.32,10.5,4.28l11.39-2.92l8.35,18.73 c0.98,2.21,3.17,3.63,5.59,3.63l0,0c3.83,0,6.72-3.48,6.02-7.24l-3.98-21.36l14.45-2.49c3.61-0.62,6.63-3.08,7.97-6.48 l6.52-16.47c2.37-5.98,0-12.79-5.57-16.01l-19.55-11.32C932.47,918.55,921.78,917.38,911.94,920.48z" class="st10"/><path d="M890.61,966.4l9.09,14.96c2.18,3.58,6.44,5.32,10.5,4.28l11.39-2.92" class="st16"/><path d="M921.59,982.73l8.35,18.73c0.98,2.21,3.17,3.63,5.59,3.63l0,0c3.83,0,6.72-3.48,6.02-7.24l-3.98-21.36" class="st16"/><path d="M960.95,935.04c5.57,3.22,7.93,10.03,5.57,16.01L960,967.52c-1.35,3.4-4.37,5.86-7.97,6.48l6.6-24.29 c0.7-2.56,0.23-5.3-1.28-7.48l-3.17-4.59" class="st16"/><path d="M937.57,976.49l-3.7-18.33c-0.73-3.6-2.38-6.96-4.78-9.73l-4.21-4.86" class="st16"/><path d="M921.59,982.73l-3.32-9.27c-1.79-5-4.18-9.77-7.1-14.21l0,0c-1.01-1.53-3.32-1.35-4.07,0.33l0,0 c-1.28,2.87-0.14,6.25,2.63,7.75l3.48,1.89" class="st16"/><path d="M945.43,974.6l2.56-22.59c0.32-2.83-0.42-5.68-2.09-7.99l-3.96-5.5" class="st16"/></g><path d="M1145.57,1588.55c0,0-16.59-9.69-33.87,15" class="st20"/><path d="M1120.44,1574.39c0,0-16.59-9.69-33.87,15" class="st20"/><ellipse cx="1045.89" cy="1183.91" class="st16" rx="35.5" ry="39.3" transform="matrix(0.9803 -0.1974 0.1974 0.9803 -213.0858 229.705)"/><path d="M836.23,1243.92c20.65,3.15,40.04-11.7,43.31-33.16c3.27-21.46-10.82-41.4-31.47-44.55 s-40.04,11.7-43.31,33.16c-2.29,15.04,3.95,29.34,14.99,37.63" class="st16"/><path d="M805.73,1120.43L805.73,1120.43c5.53-8.39,8.87-18.04,9.71-28.06l1.68-20.03" class="st21"/><path d="M791.93,1628.08c0,0-24.37-20.38-53.71-2.66" class="st20"/><path d="M786.75,1605.77c0,0-21.8-18.23-48.04-2.38" class="st20"/><path d="M680.19,1072.35c0,0-7.12,40.44-37.98,47.61" class="st16"/><path d="M649.74,716.76c0,0,18.47,0.59,38.58,16.92c20.1,16.33,0.82-19.68-11.6-30.39S649.74,716.76,649.74,716.76z" class="st12"/><path d="M798.79,747.95c-1.56,26.67-10.99,47.26-10.99,47.26s-0.3-27.96,2.59-41.69 c1.24-5.86,1.24-16.82,0.84-27.45c2.56,0.67,5.19,1.2,7.85,1.56C799.3,733.63,799.23,740.46,798.79,747.95z" class="st12"/><path d="M758.86,773.7c0,0,17.81,37.59,6.84,75.52s-6.84,56.77-6.84,56.77" class="st16"/><path d="M793.5,772.07c0,0,10.78,32.04,16.86,67.77c6.08,35.73,18.48,53.09,18.48,53.09" class="st16"/><path d="M758.12,918.86L758.12,918.86c-2.86,0-5.18-2.32-5.18-5.18v-7c0-2.86,2.32-5.18,5.18-5.18l0,0 c2.86,0,5.18,2.32,5.18,5.18v7C763.3,916.55,760.98,918.86,758.12,918.86z" class="st7"/><path d="M837.48,905.01L837.48,905.01c-2.31,1.68-5.55,1.18-7.23-1.14l-4.12-5.66c-1.68-2.31-1.18-5.55,1.14-7.23 l0,0c2.31-1.68,5.55-1.18,7.23,1.13l4.12,5.66C840.3,900.08,839.79,903.32,837.48,905.01z" class="st7"/><path d="M566.82,985.85c2.22-3.75,3.49-8.12,3.49-12.79c0-13.9-11.27-25.16-25.16-25.16" class="st16"/></g><g><g><path d="M1152.61,1146.96l2.26,113.76c0.2,9.96,5.53,19.12,14.1,24.21l11.24,6.68" class="st22"/><path d="M1183.27,1276.74c0,0-52.16-15.25-47.98-57.46c4.18-42.21,29.15-52.3,31.13-72.32" class="st22"/><path d="M1176.3,1310.67c0,0-14.41-80.8-3.45-109.13c10.96-28.33,14.54-54.59,14.54-54.59" class="st20"/></g><path d="M773.7,1008.92h757.83c6.18,0,11.19,5.01,11.19,11.19v0c0,6.18-5.01,11.19-11.19,11.19H773.7 c-6.18,0-11.19-5.01-11.19-11.19v0C762.51,1013.93,767.52,1008.92,773.7,1008.92z" class="st23"/><rect width="729.18" height="19.03" x="789.54" y="1031.3" class="st24"/><polygon points="799.69 1128.78 777.7 1662.75 767.44 1662.75 774.58 1107.76" class="st23"/><polygon points="755.54 1136.09 755.54 1662.75 767.44 1662.75 787.39 1119.96" class="st13"/><g><polygon points="1067.89 1136.09 1067.89 1662.75 1056 1662.75 1036.05 1119.96" class="st23"/><polygon points="1023.75 1128.78 1045.74 1662.75 1056 1662.75 1048.86 1107.76" class="st13"/></g><polygon points="1308.18 1128.78 1286.19 1662.75 1275.93 1662.75 1283.06 1107.76" class="st23"/><polygon points="1264.03 1136.09 1264.03 1662.75 1275.93 1662.75 1295.87 1119.96" class="st23"/><g><polygon points="1468.43 1128.78 1490.42 1662.75 1500.68 1662.75 1493.54 1107.76" class="st13"/><polygon points="1512.57 1136.09 1512.57 1662.75 1500.68 1662.75 1480.73 1119.96" class="st23"/></g><rect width="450.83" height="96.62" x="1067.89" y="1050.33" class="st23"/><rect width="311.87" height="18.49" x="756.03" y="1031.84" class="st24"/><path d="M1056.7,1031.3H736.21c-6.18,0-11.19-5.01-11.19-11.19v0c0-6.18,5.01-11.19,11.19-11.19h320.49 c6.18,0,11.19,5.01,11.19,11.19v0C1067.89,1026.29,1062.88,1031.3,1056.7,1031.3z" class="st13"/><rect width="312.52" height="96.62" x="755.38" y="1050.33" class="st13"/></g><g><g><path d="M954.13,882.44h381.53c8.97,0,17.39-7.27,18.81-16.23L1392,629.69c1.42-8.97-4.69-16.23-13.66-16.23 H996.82c-8.97,0-17.39,7.27-18.81,16.23l-37.54,236.52C939.05,875.18,945.16,882.44,954.13,882.44" class="st24"/><path d="M961.28,886.3l381.53,0c8.97,0,17.39-7.27,18.81-16.23l37.54-236.52c1.42-8.97-4.69-16.23-13.66-16.23 l-381.53,0c-8.97,0-17.39,7.27-18.81,16.23l-37.54,236.52C946.2,879.03,952.32,886.3,961.28,886.3" class="st3"/><path d="M961.28,886.3l381.53,0c8.97,0,17.39-7.27,18.81-16.23l37.54-236.52" class="st25"/><path d="M1174.2,742.7c-1.8,11.37,5.95,20.59,17.32,20.59s22.05-9.22,23.86-20.59 c1.8-11.37-5.95-20.59-17.32-20.59C1186.68,722.11,1176,731.33,1174.2,742.7" class="st23"/></g><path d="M1208.22,813.86h-52.07c-3.2,0-5.57,2.97-4.87,6.09l36.63,162.37c1.05,4.64-2.32,9.11-7.07,9.38l-135.34,7.7 c-6.75,0.38-12.93,3.91-16.69,9.53l0,0h165.1h43.48c9.65,0,16.81-8.95,14.68-18.36l-38.99-172.81 C1212.58,815.47,1210.55,813.86,1208.22,813.86z" class="st3"/><path d="M1252.08,990.56l-38.99-172.81c-0.51-2.28-2.54-3.89-4.87-3.89h-52.07" class="st25"/><path d="M1237.4,1008.92c9.65,0,16.81-8.95,14.68-18.36l-38.99-172.81" class="st25"/><path d="M1187.22,1008.92h-158.4c3.76-5.62,9.94-9.15,16.69-9.53l135.34-7.7c4.75-0.27,8.12-4.74,7.07-9.38 l-36.63-162.36c-0.71-3.12,1.66-6.09,4.86-6.09h13.5c-3.2,0-5.57,2.97-4.86,6.09l38.07,169.43 C1205.1,999.4,1197.48,1008.92,1187.22,1008.92z" class="st5"/><polygon points="1151.28 819.95 1144.29 886.3 1173.94 886.3" class="st5"/></g><g><path d="M1394.47,952.27c0,0,12.07-16.04,4.74-37.02c-0.46-1.32-2.36-1.26-2.69,0.1 c-1.18,4.81-3.88,12.2-9.76,16.17c0,0-1.67-21.1-12.66-31.83c-0.65-0.63-1.7-0.51-2.19,0.25c-2.7,4.25-10.35,17.78-10.44,34.52 c0,0-9.69-5.24-14.13-14.05c-0.59-1.16-2.31-0.94-2.61,0.33c-1.49,6.25-2.81,19.09,6.66,31.53" class="st26"/><path d="M1337.62,960.87l7.49,42.02c0.62,3.49,3.66,6.03,7.21,6.03h41.15c3.56,0,6.59-2.55,7.21-6.05l0.35-1.97 h-31.57c-3.55,0-6.58-2.55-7.2-6.04l-7.49-42.02c-0.04-0.19-0.06-0.38-0.08-0.57h-9.86 C1340.27,952.27,1336.83,956.38,1337.62,960.87z" class="st23"/><path d="M1354.69,952.27c0.02,0.19,0.04,0.38,0.08,0.57l7.49,42.02c0.62,3.49,3.65,6.04,7.2,6.04h31.57l7.05-40.05 c0.79-4.48-2.66-8.58-7.21-8.58H1354.69z" class="st13"/><path d="M1354.69,952.27c0.02,0.19,0.04,0.38,0.08,0.57l7.49,42.02c0.62,3.49,3.65,6.04,7.2,6.04h31.57l7.05-40.05 c0.79-4.48-2.66-8.58-7.21-8.58H1354.69z" class="st13"/></g><g><g><path d="M995.32,547.53h34.76c0,0,10.75,25.3,28.28,17.95c12-5.03,8.9-27.83,5.74-41.71 c-2.41-10.59-10.63-19-21.25-21.23c-3.33-0.7-7.21-1.15-11.71-1.22c-15.89-0.22-32.32-0.14-41.41-0.07 c-7.2,0.06-14.27,2.43-19.76,7.1c-3.44,2.93-6.46,6.85-7.34,11.87c-2.71,15.48-15.13,48.49,15.41,46.59 C978.05,566.82,990.53,564.09,995.32,547.53z" class="st27"/><path d="M983.98,510.95v6.6l4.52,4.1l4.95-3.96v-6.74c0-1.51-1.22-2.73-2.73-2.73h-4.01 C985.21,508.22,983.98,509.44,983.98,510.95z" class="st3"/><path d="M1002.85,519.67l-6.6,0.04l-4.07,4.55l3.99,4.92l6.74-0.04c1.51-0.01,2.72-1.24,2.71-2.75l-0.03-4.01 C1005.59,520.88,1004.36,519.66,1002.85,519.67z" class="st3"/><path d="M975.25,519.67l6.6,0.04l4.07,4.55l-3.99,4.92l-6.74-0.04c-1.51-0.01-2.72-1.24-2.71-2.75l0.03-4.01 C972.51,520.88,973.74,519.66,975.25,519.67z" class="st3"/><path d="M983.98,537.16v-6.6l4.52-4.1l4.95,3.96v6.74c0,1.51-1.22,2.73-2.73,2.73h-4.01 C985.21,539.89,983.98,538.67,983.98,537.16z" class="st3"/><circle cx="1038.21" cy="513.8" r="5.59" class="st3"/><circle cx="1026.9" cy="524.42" r="5.59" class="st3"/><circle cx="1038.21" cy="536.35" r="5.59" class="st3"/><circle cx="1049.38" cy="524.97" r="5.59" class="st3"/></g></g><g><path d="M1218.95,1102.78l-63.29,308.51c-2.88,14.04,7.84,27.18,22.17,27.18h289.69c21.41,0,38.76-17.35,38.76-38.76 v-289.15c0-21.41-17.35-38.76-38.76-38.76h-210.6C1238.52,1071.81,1222.65,1084.75,1218.95,1102.78z" class="st3"/><path d="M1354.93,1102.78l-63.29,308.51c-2.88,14.04,7.84,27.18,22.17,27.18h289.69c21.41,0,38.76-17.35,38.76-38.76 v-289.15c0-21.41-17.35-38.76-38.76-38.76h-210.6C1374.49,1071.81,1358.63,1084.75,1354.93,1102.78z" class="st5"/><path d="M1319.36,1411.32l62.18-303.08c1.1-5.37,5.88-9.27,11.36-9.27h210.6c6.4,0,11.6,5.2,11.6,11.6v289.15 c0,6.4-5.2,11.6-11.6,11.6H1319.36z" class="st12"/><path d="M1392.9,1098.97c-5.48,0-10.26,3.9-11.36,9.27l-62.18,303.08h188.8v-312.35H1392.9z" class="st3"/><path d="M1603.5,1098.97h-95.33v312.35h95.33c6.4,0,11.6-5.2,11.6-11.6v-289.15 C1615.1,1104.18,1609.9,1098.97,1603.5,1098.97z" class="st5"/><ellipse cx="1275.57" cy="1137.23" class="st10" rx="14.16" ry="12.18" transform="matrix(0.8083 -0.5888 0.5888 0.8083 -425.0497 969.1062)"/><path d="M1233.01,1177.62h76.26c2.62,0,4.57,2.41,4.04,4.97l-7.4,35.28c-0.93,4.42-4.83,7.59-9.35,7.59h-76.47 c-2.63,0-4.59-2.43-4.03-4.99l7.62-35.31C1224.63,1180.76,1228.52,1177.62,1233.01,1177.62z" class="st10"/><g><line x1="1237.76" x2="1291.31" y1="1193.86" y2="1193.86" class="st16"/><line x1="1234.27" x2="1287.81" y1="1209.23" y2="1209.23" class="st16"/></g><path d="M1188.12,1253.1l17.32,14.09c9.63,7.83,14.09,20.38,11.56,32.54l-24.25,116.5 c-2.39,11.48,6.37,22.25,18.1,22.25h16.55" class="st8"/><path d="M1322.73,1259.76l-33.28,14.64c-9.9,4.35-17.06,13.26-19.19,23.86l-23.74,118.1 c-2.3,11.44,6.45,22.13,18.12,22.13h22.38" class="st8"/><path d="M1178.89,1298.08l6.2,6.58c1.9,2.02,2.69,4.83,2.13,7.54l-15.89,76.58c-0.56,2.7-2.4,4.96-4.93,6.06 l-8.09,3.51L1178.89,1298.08z" class="st10"/><polygon points="1596.17 1232.1 1375.12 1232.1 1340.54 1411.32 1596.17 1411.32" class="st3"/><polyline points="1596.17 1232.1 1375.12 1232.1 1340.54 1411.32" class="st25"/><circle cx="1576.26" cy="1137.23" r="13.15" class="st10"/><path d="M1559.5,1321.71h-120.2c-3.05,0-5.52-2.47-5.52-5.52l0,0c0-3.05,2.47-5.52,5.52-5.52h120.2 c3.05,0,5.52,2.47,5.52,5.52l0,0C1565.02,1319.24,1562.55,1321.71,1559.5,1321.71z" class="st5"/><path d="M1559.5,1290.28h-120.2c-3.05,0-5.52-2.47-5.52-5.52l0,0c0-3.05,2.47-5.52,5.52-5.52h120.2 c3.05,0,5.52,2.47,5.52,5.52l0,0C1565.02,1287.81,1562.55,1290.28,1559.5,1290.28z" class="st5"/></g><rect width="442.61" height="24.66" x="1250.36" y="1438.48" class="st23"/><rect width="195.45" height="24.66" x="1135.29" y="1438.48" class="st13"/><rect width="140.76" height="201.54" x="1162.63" y="1463.14" class="st13"/><rect width="140.76" height="19.29" x="1162.63" y="1463.14" class="st24"/><polyline points="1303.39 1664.68 1162.63 1664.68 1162.63 1463.14" class="st2"/><polygon points="1642.26 1664.68 1471.66 1664.68 1303.39 1664.68 1303.39 1463.14 1642.26 1463.14 1642.26 1586.67" class="st24"/><polyline points="1642.26 1586.67 1642.26 1664.68 1471.66 1664.68" class="st2"/><polyline points="1330.74 1463.14 1135.29 1463.14 1135.29 1438.48 1330.74 1438.48" class="st2"/><path d="M1570.72,1577.49h-192.54c-3.06,0-5.55-2.48-5.55-5.55v-24.16c0-3.06,2.48-5.55,5.55-5.55h192.54 c3.06,0,5.55,2.48,5.55,5.55v24.16C1576.26,1575.01,1573.78,1577.49,1570.72,1577.49z" class="st16"/><g><g><g><path d="M423.7,1363.5c0,0,27.45,60.45,18.7,102.77h20.09c0,0-11.87-86.65-43.21-117.38" class="st28"/><path d="M468.03,1336.43c0,0-29.72,31.61-20.15,129.84h14.61c0,0-14.61-80.34,10.08-129.84" class="st29"/><path d="M493.72,1340.83c0,0-38.79,44.33-18.14,125.44h-16.31c0,0-10.39-59.95,19.34-117.38" class="st28"/><path d="M304.81,1187.18c0,0,9.07,9.82,12.09,29.47s36.27,0.76,41.56,9.82c5.29,9.07-11.33,6.8-26.83,6.8 c-15.49,0-13.98,1.51-13.22,22.67s9.82,39.29,19.65,43.07c9.82,3.78,51.04-24.18,58.94-13.6c7.9,10.58-40.42,6.49-46.1,20.65 c-5.67,14.16,17.08,29.22,42.73,36.02c25.65,6.8,48.84,4.34,63.89-10.3c15.05-14.64,19.51-43.02,22.57-62.45 s-4.5-45.89-28.68-61.75c-24.18-15.87-10.08,4.28-12.59,21.41c-2.52,17.13-12.09,11.59-11.08,0.5 c1.01-11.08,6.05-28.71-5.54-42.32c-11.59-13.6-44.84-12.59-50.38-12.09s9.07,11.75,6.55,21.49 c-2.52,9.74-12.09-17.95-17.13-21.74C356.19,1171.06,324.45,1185.17,304.81,1187.18z" class="st28"/><path d="M442.4,1342.09c0,0-0.82-105.12-97.54-145.51" class="st19"/><path d="M392.04,1324.21c0,0,32.16-4.53,46.77,8.56c14.61,13.1-1.01,54.41-7.56,61.46 c-6.55,7.05-3.53-23.93-21.16-35.39c-17.63-11.46-9.57,6.17-2.02,10.71c7.56,4.53,14.32,20.15,11.19,32.75 s-17.33,26.7-27.87,30.73c-10.53,4.03,0.89-16.16-14.56-28.21c-8.31-6.48-10.02-0.97-5.54,5.04 c5.75,7.72,13.47,19.86,8.43,29.18c-5.46,10.11-29.59,10.62-47.73,38.33c0,0-17.13-15.11-27.71-33.75 c-10.58-18.64-9.57-23.17,2.52-29.22s16.12-9.32,16.12-13.98c0-4.66-10.58-0.63-18.64,5.92c-8.06,6.55-14.11,6.55-16.62,2.52 s-2.13-29.87,5.54-35.77c9.63-7.4,21.66-17.13,33.25-20.15c11.59-3.02,6.55-9.57,0-6.55c-6.55,3.02-29.72,17.63-31.74,16.12 c-2.02-1.51,2.02-20.65,24.18-33.25c22.17-12.59,45.84-10.58,54.41-8.06C381.88,1323.7,386.14,1324.75,392.04,1324.21z" class="st29"/><path d="M384.91,1325.72c0,0-46.35,10.58-52.9,114.36" class="st19"/><path d="M444.86,1360.48c0,0-15.12-25.19-7.06-51.38c8.06-26.2,27.71-40.3,30.23-37.78 c2.52,2.52,3.11,24.68,11.13,26.7c8.02,2.02,0.96-8.56-2.06-18.64s-0.92-17.63,2.06-20.15c2.98-2.52,26.66-13.6,31.19-13.1 c4.53,0.5-0.96,24.18,3.8,20.65c4.76-3.53,0.73-17.67,6.78-20.67c6.05-3.01,31.74-4.52,57.43,3.04c0,0-8.06,17.63-9.07,29.72 c-1.01,12.09-10.58,8.06-20.91,10.08c-10.33,2.02-1.19,7.05,4.06,6.05c5.26-1.01,12.81-2.52,14.32-0.5 c1.51,2.02,6.05,11.08-10.58,39.8C539.56,1363,492.42,1397.26,444.86,1360.48z" class="st29"/><path d="M564.75,1252.17c0,0-61.46,14.61-110.33,107.81" class="st19"/><path d="M397.58,1401.35c-12.67-44.19-45.34-44.19-45.34-44.19s-27.71-0.44-44.84,22.1" class="st19"/><path d="M352.24,1438.06c-2.52-13.1-17.7-22.75-17.7-22.75s-11.94,2.1-21.09,15.2" class="st19"/><path d="M429.82,1348.89c-12.7-23.61-51.28-20.46-51.28-20.46s-24.58-7.18-46.53-0.14" class="st19"/><path d="M457.51,1252.17c0,0-4.52,31.91-20.64,53.9c0,0-45.34,6.64-57.93,3.99" class="st19"/><path d="M349.72,1259.95c18.64,3.92,63.99-6.82,63.99-6.82s3.52-39.92-5.55-52.52" class="st19"/><path d="M341.66,1210.19c9.07,0,20.67-5.06,20.67-5.06s-1.68-9.55-3.87-12.57" class="st19"/><path d="M497.67,1267.62c-4.69,12.09,0,30.23,0,30.23s19.73,8.4,41.18,8.23" class="st19"/><path d="M541.63,1252.17c0,0-5.01,8.58-6.01,13.78c0,0,12.09,4.11,21.66,3.39" class="st19"/><path d="M465.29,1340.83c0,0-6.79-17.96-6.02-34.76" class="st19"/><path d="M442.62,1367.2c0,0,0.73-24.73,24.21-37.2c23.48-12.47,37.46-3.02,49.93-6.05 c12.47-3.02,32.87-5.67,47.98,7.56c15.11,13.22,19.27,27.58,17.38,28.34c-1.89,0.76-16.62-8.31-22.29-3.78 c-5.67,4.53,10.58,6.02,18.14,11.13c7.56,5.11,9.07,20.49,7.18,31.13c-1.89,10.64-4.16,12.53-10.96,4.59 c-6.8-7.93-15.49-9.94-13.98-4.59c1.51,5.35,15.49,14.04,14.36,20.08s-16.62,33.63-18.89,38.92c0,0-20.78-11.84-33.63-17.25 c-12.85-5.42-6.8-12.22-3.02-17.88s14.74-18.51,12.09-21.54c-2.64-3.02-10.96,3.4-15.11,13.22s-6.05,18.51-7.56,19.65 c-1.51,1.13-20.4-0.38-31.74-10.58c-11.33-10.2-8.69-15.87-8.31-17.76c0.38-1.89,9.45-15.22,22.29-22.73 c12.85-7.5,9.45-13.92,3.78-12.79c-5.67,1.13-20.78,15.87-26.07,25.69c-5.29,9.82-3.02,9.07-13.98-1.89 S441.65,1373.69,442.62,1367.2z" class="st28"/><path d="M514.14,1325.72c0,0,41.16,16.37,38.14,101.76" class="st19"/><path d="M564.75,1419.93c-3.61-5.54-12.58-12.34-12.58-12.34s-12.59,10.92-16.56,23.93" class="st19"/><path d="M578.35,1386.17c0,0-17.75-12.25-31.5-13.43c0,0-32.9,4.86-47.51,34.84" class="st19"/><path d="M564.75,1342.09c0,0-23.13-13.35-36.78-5.66c0,0-45.41-4.16-61.45,32.11" class="st19"/></g><path d="M521.83,1662.78h-49.26h-61.36c-5.42,0-9.9-4.25-10.18-9.66l-9.51-180.9 c-0.31-5.83,4.34-10.73,10.18-10.73h129.63c5.84,0,10.49,4.9,10.18,10.73l-4.03,76.68l-5.48,104.22 C531.73,1658.54,527.25,1662.78,521.83,1662.78z" class="st17"/><path d="M531.33,1461.49H484l-3.41,168h-80.81l1.24,23.63c0.28,5.42,4.76,9.66,10.18,9.66h61.36h49.26 c5.42,0,9.9-4.25,10.18-9.66l1.24-23.63l4.24-80.59l4.03-76.68C541.83,1466.39,537.18,1461.49,531.33,1461.49z" class="st24"/><path d="M472.56,1662.78h-61.36c-5.42,0-9.9-4.25-10.18-9.66" class="st2"/><path d="M537.49,1548.9l-5.48,104.22c-0.28,5.42-4.76,9.66-10.18,9.66h-49.26" class="st2"/><path d="M401.02,1653.12l-9.51-180.9c-0.31-5.83,4.34-10.73,10.18-10.73h129.63" class="st2"/><line x1="392.04" x2="541.63" y1="1484.93" y2="1484.93" class="st2"/></g></g><path d="M1009.3,1008.92H812.79c-3.37,0-6.13-2.76-6.13-6.13v0c0-3.37,2.76-6.13,6.13-6.13h196.51 c3.37,0,6.13,2.76,6.13,6.13v0C1015.43,1006.17,1012.67,1008.92,1009.3,1008.92z" class="st3"/><g><path d="M1033.5,899.94c-3.39-5.88-6.63-13.74-7.34-23.02h-25.84c0,0-0.25,11.11-6.34,25.03 c-1.94,4.44-3.35,9.07-4.25,13.8h50.36C1038.6,910.24,1036.38,904.93,1033.5,899.94z" class="st23"/><path d="M989.73,915.75c-1.09,5.71-1.42,11.57-1.03,17.41l1.29,68.1c0.08,4.26,3.55,7.66,7.81,7.66h36.69 c4.31,0,7.81-3.5,7.81-7.81v-68.81c0-5.62-0.76-11.18-2.22-16.56H989.73z" class="st30"/><path d="M1000.94,995.59L1000.94,995.59c-1.67,0-3.03-1.36-3.03-3.03v-66.61c0-1.67,1.36-3.03,3.03-3.03l0,0 c1.67,0,3.03,1.36,3.03,3.03v66.61C1003.97,994.23,1002.61,995.59,1000.94,995.59z" class="st31"/><path d="M1025.97,878.25H999.9c-3.27,0-5.95-2.68-5.95-5.95l0,0c0-3.27,2.68-5.95,5.95-5.95h26.07 c3.27,0,5.95,2.68,5.95,5.95l0,0C1031.92,875.57,1029.24,878.25,1025.97,878.25z" class="st13"/><path d="M1015.43,995.59L1015.43,995.59c-1.67,0-3.03-1.36-3.03-3.03v-66.61c0-1.67,1.36-3.03,3.03-3.03l0,0 c1.67,0,3.03,1.36,3.03,3.03v66.61C1018.45,994.23,1017.09,995.59,1015.43,995.59z" class="st31"/><path d="M1029.85,994.79L1029.85,994.79c-1.67,0-3.03-1.36-3.03-3.03v-66.61c0-1.67,1.36-3.03,3.03-3.03l0,0 c1.67,0,3.03,1.36,3.03,3.03v66.61C1032.88,993.43,1031.52,994.79,1029.85,994.79z" class="st31"/></g><path d="M643.27,541.43v5.65c0,6.03-4.89,10.92-10.92,10.92H483.48c-6.03,0-10.92-4.89-10.92-10.92v-53.42 c0-6.03,4.89-10.92,10.92-10.92h19.87" class="st16"/><g><path d="M688.53,533.35l-8.57-6.27c-1.13-0.83-2.49-1.27-3.89-1.27H519.54c-3.64,0-6.59-2.95-6.59-6.59v-67.76 c0-3.64,2.95-6.59,6.59-6.59h168.03c3.64,0,6.59,2.95,6.59,6.59v79.02C694.16,533.39,690.87,535.06,688.53,533.35z" class="st30"/><line x1="669.57" x2="604.43" y1="468.41" y2="468.41" class="st19"/><line x1="669.57" x2="604.43" y1="483.41" y2="483.41" class="st19"/><line x1="669.57" x2="637" y1="498.41" y2="498.41" class="st19"/><rect width="39.18" height="39.18" x="537.55" y="464.1" class="st19"/><path d="M570.58,503.27h-26.89v-6.14c0-7.43,6.02-13.45,13.45-13.45l0,0c7.43,0,13.45,6.02,13.45,13.45V503.27z" class="st19"/><circle cx="557.14" cy="476.44" r="6.86" class="st19"/></g><g><path d="M738.64,654.5l9.45,17.07c9.71,17.54,27.71,28.91,47.72,30.14l25.45,1.56" class="st16"/><path d="M817.77,521.5c0,0-54.3-6.89-72.66,41.32c-18.36,48.21-8.98,79.73-8.98,79.73h-17.21 c0,0-5.89-49.11,9.83-84.09c2.99-6.66,6.65-12.4,10.62-17.33c14.32-17.8,36.45-27.46,59.26-26.45l32.7,1.45 c4.03,0.18,7.74,2.28,9.96,5.66l0.42,0.64L817.77,521.5z" class="st13"/><path d="M739.37,541.14c14.32-17.8,36.45-27.46,59.26-26.45l32.7,1.45c4.03,0.18,7.74,2.28,9.96,5.66" class="st16"/><path d="M718.92,642.55h17.21c0,0-5.15-17.35-0.32-45.98h-16.68C716.36,621.17,718.92,642.55,718.92,642.55z" class="st24"/><circle cx="727.74" cy="635.15" r="27.92" class="st13"/><circle cx="722.93" cy="635.15" r="19.36" class="st23"/><path d="M821.28,708.75h-15.75c-3.02,0-5.46-2.45-5.46-5.46l0,0c0-3.02,2.45-5.46,5.46-5.46h15.75 c3.02,0,5.46,2.45,5.46,5.46l0,0C826.74,706.3,824.29,708.75,821.28,708.75z" class="st7"/></g></g></switch></svg>